<svg viewBox="0 0 24 24" fill="none" xmlns="http://www.w3.org/2000/svg" class="oXanPN5zTC45mMlkg533"><path fill="#1E1E1E" d="M0 0h24v24H0z"/><path fill-rule="evenodd" clip-rule="evenodd" d="M3 0h18a3 3 0 013 3v18a3 3 0 01-3 3H3a3 3 0 01-3-3V3a3 3 0 013-3z" fill="#202B3D"/><mask id="a" style="mask-type:alpha;" maskUnits="userSpaceOnUse" x="0" y="0" width="24" height="24"><path fill-rule="evenodd" clip-rule="evenodd" d="M3 0h18a3 3 0 013 3v18a3 3 0 01-3 3H3a3 3 0 01-3-3V3a3 3 0 013-3z" fill="#fff"/></mask><g mask="url(#a)" fill-rule="evenodd" clip-rule="evenodd" fill="#fff"><path opacity=".56" d="M14.816 8.598c-.512.067-2.51-1.177-6.34-3.233-3.338-1.794-2.429.754-2.134 1.45.042.099.05.207.025.31-.126.5-.203 2.385 3.687 6.529.155.165.22.331.098.523-.028.044-.042.069-.042.069-.533.854 5.098-5.963 4.706-5.648z"/><path opacity=".32" d="M14.816 8.598c-.492-.106-.639-.218-2.367-4.21-1.292-2.986-2.539-.156-2.51.602a.486.486 0 01-.085.298c-.294.422-1.825 2.766.35 8.021.086.21.07.656-.052.868-.028.044-.042.069-.042.069-.533.854 5.098-5.963 4.706-5.648z"/><path d="M19.2 8c-.55-.051-.986-.968-1.937-.968-.997 0-2.055 1.25-2.447 1.566-.566.354-3.6.38-8.084.694-3.969.278-2.488 1.344-2.032 1.62.064.038.096.094.088.161-.04.325.487 1.764 5.154 2.715.437.09.168.457.168.457-.533.855-2.307 3.844-2.874 6.485-.115.536.411-.793 2.588-2.642 2.177-1.85 4.355-1.524 6.298-4.054 1.943-2.53.986-4.29 3.078-4.834L24 8s-4.748.005-4.8 0z"/></g></svg>